<svg xmlns="http://www.w3.org/2000/svg" width="17.959" height="65" viewBox="0 0 17.959 65"><path d="M220.359,339,202.4,356.959v3.592l17.959-17.959Z" transform="translate(-202.4 -295.55)" fill="#fff"/><path d="M220.359,313,202.4,330.959v3.592l17.959-17.958Z" transform="translate(-202.4 -276.734)" fill="#fff"/><path d="M220.359,249.507l-5.388-5.44,5.388-5.44V235L202.4,253.133v3.627l5.388,5.44-5.388,5.44v3.627l17.959-18.133Zm-10.775,10.88-5.388-5.44,1.8-1.813,5.388,5.44Zm3.592-3.627-5.388-5.44,1.8-1.813,5.388,5.44Zm3.592-3.627-5.388-5.44,1.8-1.813,5.388,5.44Z" transform="translate(-202.4 -220.633)" fill="#fff"/><path d="M220.359,209,202.4,226.959v3.592l17.959-17.959Z" transform="translate(-202.4 -201.817)" fill="#fff"/><path d="M220.359,183,202.4,200.959v3.592l17.959-17.959Z" transform="translate(-202.4 -183)" fill="#fff"/></svg>