<svg xmlns="http://www.w3.org/2000/svg" width="1944.001" height="594.999" viewBox="0 0 1944.001 594.999"><path d="M1782,430.764,1620,595V562.153l162-164.235,162,164.235V595Zm-324,0L1296,595V562.153l162-164.235,162,164.235V595Zm-324,0L972,595V562.153l162-164.235,162,164.235V595Zm-324,0L648,595V562.153L810,397.918,972,562.153V595Zm-324,0L324,595V562.153L486,397.918,648,562.153V595Zm-324,0L0,595V562.153L162,397.918,324,562.153V595Zm1620-65.693L1620,529.306V496.46l162-164.237L1944,496.46v32.846Zm-324,0L1296,529.306V496.46l162-164.237L1620,496.46v32.846Zm-324,0L972,529.306V496.46l162-164.237L1296,496.46v32.846Zm-324,0L648,529.306V496.46L810,332.222,972,496.46v32.846Zm-324,0L324,529.306V496.46L486,332.222,648,496.46v32.846Zm-324,0L0,529.306V496.46L162,332.222,324,496.46v32.846ZM1782,297.5V264.276l48.6-49.832L1782,164.609V131.388L1944,297.5v33.223l-48.6,49.835,48.6,49.832v33.224Zm81,49.834,16.2,16.612,48.6-49.835L1911.6,297.5Zm-32.4-33.223,16.2,16.611,48.6-49.832-16.2-16.614Zm-32.4-33.221,16.2,16.609,48.6-49.833-16.2-16.611ZM1620,463.612h0L1458,297.5V264.276l48.6-49.832L1458,164.609V131.388L1620,297.5l162-166.111v33.221l-48.6,49.835,48.6,49.832V297.5L1620,463.612h0Zm-48.6-83.055,48.6,49.832,48.6-49.832L1620,330.723Zm64.8-66.446,48.6,49.835,16.2-16.612L1652.4,297.5ZM1539,347.333l16.2,16.612,48.6-49.835L1587.6,297.5Zm129.6-66.443,48.6,49.832,16.2-16.611-48.6-49.835Zm-162,33.221,16.2,16.611,48.6-49.832-16.2-16.614ZM1701,247.667l48.6,49.833,16.2-16.609-48.6-49.835ZM1474.2,280.89l16.2,16.609,48.6-49.833-16.2-16.611ZM1296,463.612h0L1134,297.5V264.276l48.6-49.832L1134,164.609V131.388L1296,297.5l162-166.111v33.221l-48.6,49.835,48.6,49.832V297.5L1296,463.612h0Zm-48.6-83.055,48.6,49.832,48.6-49.832L1296,330.723Zm64.8-66.446,48.6,49.835,16.2-16.612L1328.4,297.5ZM1215,347.333l16.2,16.612,48.6-49.835L1263.6,297.5Zm129.6-66.443,48.6,49.832,16.2-16.611-48.6-49.835Zm-162,33.221,16.2,16.611,48.6-49.832-16.2-16.614ZM1377,247.667l48.6,49.833,16.2-16.609-48.6-49.835ZM1150.2,280.89l16.2,16.609,48.6-49.833-16.2-16.611ZM972,463.612h0L810,297.5V264.276l48.6-49.832L810,164.609V131.388L972,297.5l162-166.111v33.221l-48.6,49.835,48.6,49.832V297.5L972,463.612h0Zm-48.6-83.055L972,430.389l48.6-49.832L972,330.723Zm64.8-66.446,48.6,49.835,16.2-16.612L1004.4,297.5ZM891,347.333l16.2,16.612,48.6-49.835L939.6,297.5Zm129.6-66.443,48.6,49.832,16.2-16.611-48.6-49.835Zm-162,33.221,16.2,16.611,48.6-49.832-16.2-16.614ZM1053,247.667l48.6,49.833,16.2-16.609-48.6-49.835ZM826.2,280.89,842.4,297.5,891,247.667l-16.2-16.611ZM648,463.612h0L486,297.5V264.276l48.6-49.832L486,164.609V131.388L648,297.5,810,131.388v33.221l-48.6,49.835L810,264.276V297.5L648,463.612h0Zm-48.6-83.055L648,430.389l48.6-49.832L648,330.723Zm64.8-66.446,48.6,49.835L729,347.333,680.4,297.5ZM567,347.333l16.2,16.612,48.6-49.835L615.6,297.5ZM696.6,280.89l48.6,49.832,16.2-16.611-48.6-49.835Zm-162,33.221,16.2,16.611,48.6-49.832-16.2-16.614ZM729,247.667,777.6,297.5l16.2-16.609-48.6-49.835ZM502.2,280.89,518.4,297.5,567,247.667l-16.2-16.611ZM324,463.612h0L162,297.5V264.276l48.6-49.832L162,164.609V131.388L324,297.5,486,131.388v33.221l-48.6,49.835L486,264.276V297.5L324,463.612h0Zm-48.6-83.055L324,430.389l48.6-49.832L324,330.723Zm64.8-66.446,48.6,49.835L405,347.333,356.4,297.5ZM243,347.333l16.2,16.612,48.6-49.835L291.6,297.5ZM372.6,280.89l48.6,49.832,16.2-16.611-48.6-49.835Zm-162,33.221,16.2,16.611,48.6-49.832-16.2-16.614ZM405,247.667,453.6,297.5l16.2-16.609-48.6-49.835ZM178.2,280.89,194.4,297.5,243,247.667l-16.2-16.611ZM0,430.389l48.6-49.832L0,330.722V297.5L162,131.388v33.221l-48.6,49.835L162,264.276V297.5L0,463.613ZM16.2,314.111l48.6,49.835L81,347.333,32.4,297.5ZM48.6,280.89l48.6,49.832,16.2-16.611L64.8,264.276ZM81,247.667,129.6,297.5l16.2-16.609L97.2,231.055ZM1782,98.541,1620,262.777V229.93L1782,65.695,1944,229.93v32.846Zm-324,0L1296,262.777V229.93L1458,65.695,1620,229.93v32.846Zm-324,0L972,262.777V229.93L1134,65.695,1296,229.93v32.846Zm-324,0L648,262.777V229.93L810,65.695,972,229.93v32.846Zm-324,0L324,262.777V229.93L486,65.695,648,229.93v32.846Zm-324,0L0,262.777V229.93L162,65.695,324,229.93v32.846ZM1782,32.847,1620,197.081V164.236L1782,0l162,164.235v32.845Zm-324,0L1296,197.081V164.236L1458,0l162,164.235v32.845Zm-324,0L972,197.081V164.236L1134,0l162,164.235v32.845Zm-324,0L648,197.081V164.236L810,0,972,164.236v32.845Zm-324,0L324,197.081V164.236L486,0,648,164.236v32.845Zm-324,0L0,197.081V164.236L162,0,324,164.236v32.845Z" transform="translate(0 -0.001)" fill="black" opacity="0.05"/></svg>